<?xml version="1.0" encoding="utf-8"?>
<!-- Generator: Adobe Illustrator 27.3.1, SVG Export Plug-In . SVG Version: 6.00 Build 0)  -->
<svg version="1.1" id="Layer_1" xmlns="http://www.w3.org/2000/svg" xmlns:xlink="http://www.w3.org/1999/xlink" x="0px" y="0px"
	 viewBox="0 0 178 82" style="enable-background:new 0 0 178 82;" xml:space="preserve">
<style type="text/css">
	.st0{fill:#FFFFFF;}
</style>
<g id="text-logo" transform="matrix(1.9211538461538462 0 0 1.9211538461538462 639.6686009615387 512.3810269613317)">
	<g>
		<g id="text-logo-path-0" transform="matrix(1 0 0 1 -5.684342e-14 0)">
			<path class="st0" d="M-329.7-248.6h4.9v-0.4h-3.9v-7.2h-1V-248.6z M-322.8-251.5v-4.7h-1v4.7c0,1.7,1.3,3,3,3c1.7,0,3-1.3,3-3
				v-4.7h-0.4v4.7c0,1.4-1,2.6-2.3,2.6C-321.7-248.8-322.8-250-322.8-251.5z M-313.2-253.3l-1.8-2.9h-1.1l2.4,3.8l-2.3,3.8h0.4
				l2.1-3.5l0.1,0.1l2.1,3.4h1.1l-2.7-4.4l2-3.2h-0.4L-313.2-253.3z M-308-251.5v-4.7h-1v4.7c0,1.7,1.3,3,3,3c1.7,0,3-1.3,3-3v-4.7
				h-0.4v4.7c0,1.4-1,2.6-2.3,2.6C-307-248.8-308-250-308-251.5z M-298.4-256.2h-3v7.6h1v-2.3h1.1c0.5,0.1,0.9,0.3,1.3,0.6
				c0.6,0.5,1.1,1.1,1.6,1.7c0.6,0.6,1.2,1.2,2,1.6c0.4,0.2,0.8,0.3,1.3,0.3c0.5,0,1-0.1,1.4-0.4l-0.2-0.3c-0.2,0.1-0.5,0.1-0.7,0.1
				c-1,0-1.6-0.5-2.2-1.1c-0.3-0.3-0.6-0.5-0.8-0.8c-0.7-0.7-1.4-1.3-2.3-1.6c1.3-0.2,2.3-1.3,2.3-2.6
				C-295.7-255-296.9-256.2-298.4-256.2z M-300.4-251.2v-4.6h1.5c1.2,0,2.2,1,2.2,2.3c0,1.3-1,2.3-2.2,2.3H-300.4z M-291.3-252.8
				l-1.7-3.3h-1l1.9,3.7v3.9h1v-3.9l1.9-3.7h-0.4L-291.3-252.8z M-278-248.5c1.1,0,2-0.5,2.7-1.3l-0.5-0.5c-0.5,0.8-1.3,1.4-2.1,1.4
				c-1.5,0-2.7-1.7-2.7-3.5c0-1.9,1.2-3.5,2.7-3.5c0.9,0,1.6,0.6,2.1,1.4l0.5-0.5c-0.7-0.8-1.6-1.3-2.7-1.3c-2,0-3.7,1.8-3.7,3.9
				C-281.7-250.3-280-248.5-278-248.5z M-270.7-256.2h-3v7.6h1v-2.3h1.1c0.5,0.1,0.9,0.3,1.3,0.6c0.6,0.5,1.1,1.1,1.6,1.7
				c0.6,0.6,1.2,1.2,2,1.6c0.4,0.2,0.8,0.3,1.3,0.3c0.5,0,1-0.1,1.4-0.4l-0.1-0.3c-0.2,0.1-0.5,0.1-0.7,0.1c-1,0-1.6-0.5-2.2-1.1
				c-0.3-0.3-0.6-0.5-0.8-0.8c-0.7-0.7-1.4-1.3-2.3-1.6c1.3-0.2,2.3-1.3,2.3-2.6C-268-255-269.2-256.2-270.7-256.2z M-272.7-251.2
				v-4.6h1.5c1.2,0,2.2,1,2.2,2.3c0,1.3-1,2.3-2.2,2.3H-272.7z M-265.9-252.4c0,2.1,1.6,3.9,3.7,3.9c2,0,3.7-1.8,3.7-3.9
				c0-2.1-1.6-3.9-3.7-3.9C-264.2-256.3-265.9-254.5-265.9-252.4z M-264.9-252.4c0-1.9,1.2-3.5,2.7-3.5c1.5,0,2.7,1.7,2.7,3.5
				c0,1.9-1.2,3.5-2.7,3.5C-263.7-248.8-264.9-250.5-264.9-252.4z M-254.2-249.3l-1.9-6.9h-1l2.1,7.6h1l1.3-4.8l1.3,4.8h1l2.1-7.6
				h-0.4l-1.9,6.9l-1.9-6.9h-1l0.6,2.1L-254.2-249.3z M-241.4-256.2v7l-4.2-7h-1.1v7.6h0.4v-7l4.2,7h1.1v-7.6H-241.4z"/>
		</g>
	</g>
</g>
<g id="logo-logo" transform="matrix(1.9211538461538462 0 0 1.9211538461538462 467.2822312994331 618.5741985827812)">
	<g>
		<g transform="matrix(1.6895035950176516 0 0 1.6895035950176516 0 0)">
			<g>
				<g transform="matrix(1 0 0 1 0 0)">
					<path class="st0" d="M-143.6-175.1c0,0,0.2,0,0.4,0c0.3,0,0.7,0,1.2,0c1.1,0,2.6-0.1,4.5-0.1c0.9,0,1.9,0,3,0
						c1.1,0,2.2,0,3.3,0c1.2,0,2.4,0,3.6,0c1.2,0,2.5,0,3.7,0c1.2,0,2.5,0,3.7,0s2.4,0,3.6,0c2.3,0,4.5,0,6.3,0.1
						c1.9,0,3.4,0.1,4.5,0.1c0.5,0,1,0,1.3,0c0.3,0,0.4,0,0.4,0s-0.2,0-0.4,0c-0.3,0-0.7,0-1.2,0c-1.1,0-2.6,0.1-4.5,0.1
						c-1.9,0-4,0-6.3,0.1c-1.2,0-2.4,0-3.6,0s-2.5,0-3.7,0s-2.5,0-3.7,0c-1.2,0-2.4,0-3.6,0c-1.2,0-2.3,0-3.3,0c-1.1,0-2.1,0-3,0
						c-1.9,0-3.4-0.1-4.5-0.1c-0.5,0-1,0-1.2,0C-143.4-175.1-143.6-175.1-143.6-175.1z"/>
				</g>
			</g>
		</g>
	</g>
</g>
<g id="tagline-d2f549bb-1b50-4e2d-977d-ef7a0e69b6d0-logo" transform="matrix(1.9211538461538462 0 0 1.9211538461538462 973.8971664265355 625.4989920733461)">
	<g>
		<g id="tagline-d2f549bb-1b50-4e2d-977d-ef7a0e69b6d0-logo-path-0" transform="matrix(1 0 0 1 0 0)">
			<path class="st0" d="M-433.3-304.5c-0.1-0.1-0.2,0-0.3,0.1c-0.6,1-2.8,8.3-2.9,8.6c0,0.1,0,0.2,0.1,0.3h0.1
				c0.1,0,0.2-0.1,0.2-0.1c0.8-2.6,2.4-7.7,2.9-8.5C-433.1-304.3-433.2-304.4-433.3-304.5z M-430.6-299.7c-0.1,0-0.2,0-0.3,0.1
				c0,0-0.1,0.2-0.3,0.4c-0.1,0.2-0.4,0.4-0.6,0.4c0-0.1,0.1-0.3,0.1-0.5c0.1-0.3,0.2-0.6,0.1-0.8c0,0-0.1-0.1-0.3-0.1
				c-0.2,0-0.6,0.2-0.9,0.6l0.2-0.6c0-0.1,0-0.2-0.1-0.3c-0.1,0-0.2,0-0.3,0.1l-0.7,1.9c0,0.1,0,0.2,0.1,0.3c0,0,0.1,0,0.1,0
				c0.1,0,0.1,0,0.2-0.1c0,0,0.3-0.4,0.6-0.8c0.4-0.5,0.7-0.6,0.8-0.7c0,0.1-0.1,0.3-0.1,0.4c-0.1,0.3-0.2,0.7-0.1,0.9
				c0,0.1,0.1,0.2,0.3,0.2c0.8,0,1.3-1.1,1.3-1.1C-430.5-299.5-430.5-299.6-430.6-299.7z M-428-300.3L-428-300.3l-1.4,0
				c0.3-0.7,0.5-1.3,0.7-1.8c0.5-1.1,0.7-1.5,0.8-1.6c0.1,0.2-0.1,1.1-0.3,1.5c-0.1,0.1,0,0.2,0.1,0.3c0.1,0.1,0.2,0,0.3-0.1
				c0.3-0.4,0.6-1.4,0.3-1.9c-0.1-0.2-0.2-0.3-0.4-0.3c-0.2,0-0.3,0.1-0.5,0.5c-0.1,0.3-0.3,0.6-0.5,1.1c-0.2,0.6-0.5,1.3-0.9,2.3
				l-0.3,0c-0.1,0-0.2,0.1-0.2,0.2s0.1,0.2,0.2,0.2l0.2,0l-0.2,0.7c-0.9,2.4-1.7,4.9-1.7,4.9c0,0.1,0,0.2,0.1,0.3c0,0,0,0,0.1,0
				c0.1,0,0.2,0,0.2-0.1c0,0,0.8-2.3,1.6-4.7c0.1-0.4,0.3-0.7,0.4-1l1.5,0c0.1,0,0.2-0.1,0.2-0.2
				C-427.8-300.2-427.9-300.3-428-300.3z M-427.1-300.5c0,0,0.1,0,0.1,0c0.1,0,0.1,0,0.2-0.1c0,0,0.2-0.3,0.3-0.5
				c0-0.1,0-0.2-0.1-0.3c-0.1,0-0.2,0-0.3,0.1c0,0.1-0.1,0.3-0.2,0.3C-427.2-300.7-427.2-300.6-427.1-300.5z M-428-298.6
				c0,0.1,0.2,0.2,0.4,0.2c0.8,0,1.4-0.9,1.5-0.9c0.1-0.1,0.1-0.2,0-0.3c-0.1-0.1-0.2,0-0.3,0c0,0-0.1,0.2-0.4,0.4
				c-0.3,0.2-0.5,0.4-0.8,0.4h0c0,0,0-0.2,0.1-0.5c0.1-0.2,0.2-0.4,0.3-0.5c0.1-0.1,0-0.2,0-0.3c-0.1-0.1-0.2,0-0.3,0
				c-0.1,0.1-0.2,0.3-0.4,0.6C-428.1-299.1-428.1-298.8-428-298.6z M-422.8-299.7c-0.1,0-0.2,0-0.3,0.1c0,0-0.1,0.2-0.3,0.4
				c-0.1,0.2-0.4,0.4-0.6,0.4c0-0.1,0.1-0.3,0.1-0.5c0.1-0.3,0.2-0.6,0.1-0.8c0,0-0.1-0.1-0.3-0.1c-0.2,0-0.6,0.2-0.9,0.6l0.2-0.6
				c0-0.1,0-0.2-0.1-0.3c-0.1,0-0.2,0-0.3,0.1l-0.7,1.9c0,0.1,0,0.2,0.1,0.3c0,0,0.1,0,0.1,0c0.1,0,0.1,0,0.2-0.1
				c0,0,0.3-0.4,0.6-0.8c0.4-0.5,0.7-0.6,0.8-0.7c0,0.1-0.1,0.3-0.1,0.4c-0.1,0.3-0.2,0.7-0.1,0.9c0,0.1,0.1,0.2,0.3,0.2
				c0.8,0,1.3-1.1,1.3-1.1C-422.7-299.5-422.7-299.6-422.8-299.7z M-421.5-300.5c0,0,0.1,0,0.1,0c0.1,0,0.1,0,0.2-0.1
				c0,0,0.2-0.3,0.3-0.5c0-0.1,0-0.2-0.1-0.3c-0.1,0-0.2,0-0.3,0.1c0,0.1-0.1,0.3-0.2,0.3C-421.6-300.7-421.6-300.6-421.5-300.5z
				 M-422.4-298.6c0,0.1,0.2,0.2,0.4,0.2c0.8,0,1.4-0.9,1.5-0.9c0.1-0.1,0.1-0.2,0-0.3c-0.1-0.1-0.2,0-0.3,0c0,0-0.1,0.2-0.4,0.4
				c-0.3,0.2-0.5,0.4-0.8,0.4h0c0,0,0-0.2,0.1-0.5c0.1-0.2,0.2-0.4,0.3-0.5c0.1-0.1,0-0.2,0-0.3c-0.1-0.1-0.2,0-0.3,0
				c-0.1,0.1-0.2,0.3-0.4,0.6C-422.4-299.1-422.5-298.8-422.4-298.6z M-415.3-301.9c-0.8-0.1-1.9-0.1-3.3-0.1c0.2-0.6,0.4-1,0.4-1
				c0-0.1,0-0.2-0.1-0.3c-0.1,0-0.2,0-0.3,0.1c0,0-0.2,0.5-0.4,1.2c-1.1,0-1.9,0.1-1.9,0.1c-0.1,0-0.2,0.1-0.2,0.2
				c0,0.1,0.1,0.2,0.2,0.2h0c0,0,0.7-0.1,1.7-0.1c-0.1,0.3-0.2,0.5-0.3,0.8c-0.5,1.3-1.1,3.1-1.4,4.7c0,0.1,0,0.2,0.2,0.3h0
				c0.1,0,0.2-0.1,0.2-0.2c0.3-1.5,0.9-3.4,1.4-4.6c0.1-0.4,0.2-0.7,0.4-1c1.1,0,2.5,0,3.4,0c0.1,0,0.2-0.1,0.2-0.2
				C-415.1-301.8-415.2-301.9-415.3-301.9z M-415.4-300.4c-0.1-0.1-0.2,0-0.3,0c0,0-0.4,0.5-0.9,0.9c-0.7,0.7-1,0.9-1.1,0.9
				c0-0.1,0-0.2,0.1-0.5c0.1-0.2,0.2-0.5,0.3-0.6c0.1-0.1,0-0.2-0.1-0.3c-0.1-0.1-0.2,0-0.3,0.1c-0.1,0.1-0.2,0.4-0.4,0.7
				c-0.1,0.3-0.2,0.6-0.1,0.9c0.1,0.1,0.2,0.2,0.3,0.2c0.2,0,0.5-0.1,1.4-1l0.3-0.3c0,0.1,0,0.2-0.1,0.2c-0.3,1-0.8,2.4-1.2,3.7
				c-0.2,0.7-0.5,1.2-0.7,1.6c-0.2,0.4-0.3,0.5-0.4,0.6c0-0.1,0-0.2,0-0.4c0-0.3,0.1-0.7,0.2-1.1c0.3-0.9,0.7-1.6,1.1-2
				c0.1-0.1,0.1-0.2,0-0.3c-0.1-0.1-0.2-0.1-0.3,0c-0.6,0.5-1,1.5-1.2,2.1c-0.2,0.7-0.4,1.6-0.2,2c0.1,0.2,0.3,0.3,0.3,0.3
				c0.3,0,0.7-0.4,1.4-2.4c0.5-1.2,1-2.8,1.3-3.8c0.2-0.6,0.3-1,0.4-1.1C-415.3-300.2-415.4-300.3-415.4-300.4z"/>
		</g>
	</g>
</g>
</svg>
